<?xml version="1.0" standalone="no"?>
<!DOCTYPE svg PUBLIC "-//W3C//DTD SVG 20010904//EN"
 "http://www.w3.org/TR/2001/REC-SVG-20010904/DTD/svg10.dtd">
<svg version="1.0" xmlns="http://www.w3.org/2000/svg"
 width="920.000000pt" height="512.000000pt" viewBox="0 0 920.000000 512.000000"
 preserveAspectRatio="xMidYMid meet">
<metadata>
Created by potrace 1.16, written by Peter Selinger 2001-2019
</metadata>
<g transform="translate(0.000000,512.000000) scale(0.100000,-0.100000)"
fill="#000000" stroke="none">
<path d="M3722 3361 c-886 -443 -881 -440 -932 -546 -62 -128 -14 -337 99
-437 l33 -29 -23 -17 c-115 -78 -163 -222 -124 -368 19 -71 77 -168 120 -202
l29 -23 -25 -16 c-156 -106 -183 -330 -62 -502 67 -95 -82 -55 1418 -385 264
-58 500 -108 525 -111 25 -3 66 0 92 7 65 18 1586 867 1593 889 8 24 -10 56
-34 64 -14 4 -243 -118 -788 -422 -422 -235 -784 -431 -804 -437 -30 -8 -111
7 -515 93 -646 139 -1313 287 -1346 300 -59 22 -118 144 -118 240 0 90 84 209
158 226 17 3 59 1 94 -5 216 -38 788 -156 1173 -242 492 -110 558 -118 630
-82 22 11 379 208 792 439 459 255 755 426 758 436 8 24 -10 56 -34 64 -14 4
-246 -121 -788 -422 -422 -235 -784 -431 -804 -437 -38 -10 -70 -3 -1074 214
-502 109 -754 166 -789 179 -57 22 -116 144 -116 240 0 91 84 209 159 226 33
7 200 -23 674 -118 l257 -53 0 48 c0 41 -3 48 -22 53 -13 2 -216 47 -453 100
-236 52 -450 100 -475 108 -77 22 -140 133 -140 246 0 92 86 212 162 226 44 8
462 -73 1652 -321 105 -22 137 -25 172 -17 52 12 1554 842 1554 859 0 7 -8 15
-18 18 -55 18 -1751 326 -1792 326 -45 0 -120 -35 -868 -409z m1311 43 c385
-72 450 -84 461 -84 6 0 -76 -49 -183 -108 l-193 -108 -342 67 c-187 38 -357
72 -376 77 -35 8 -32 10 155 105 105 53 200 96 213 96 12 1 132 -20 265 -45z"/>
<path d="M5635 2479 c-423 -236 -785 -432 -803 -435 -20 -4 -93 7 -201 30 -93
20 -174 36 -180 36 -7 0 -11 -19 -11 -48 l0 -48 153 -32 c215 -46 210 -45 264
-34 33 7 296 148 823 442 426 237 778 436 782 443 4 7 8 18 8 25 0 16 -37 52
-52 51 -7 0 -359 -193 -783 -430z"/>
</g>
</svg>
